
        <svg xmlns="http://www.w3.org/2000/svg" xmlns:xlink="http://www.w3.org/1999/xlink" version="1.1" width="3162.1621621621625" height="789.7858346009947" viewBox="0 0 3162.1621621621625 789.7858346009947">
			
			<g transform="scale(8.108108108108109) translate(10, 10)">
				<defs id="SvgjsDefs1001"/><g id="SvgjsG1007" featureKey="aMgJeN-0" transform="matrix(1.5789274286902046,0,0,1.5789274286902046,-0.5243364422924202,-11.821429640534172)" fill="#fff"><path xmlns="http://www.w3.org/2000/svg" d="M63.558,24.805c-0.45-1.679-2.224-2.805-5.271-3.347l-0.395,2.215c1.994,0.355,3.299,0.996,3.491,1.714  c0.256,0.956-1.211,2.864-4.924,5.196c-0.062-1.058-0.185-2.123-0.39-3.191C53.862,15.859,43.75,7.487,32.025,7.487  c-1.546,0-3.104,0.148-4.635,0.441c-6.429,1.23-11.994,4.892-15.67,10.308c-3.677,5.417-5.023,11.941-3.793,18.371  c0.449,2.35,1.232,4.567,2.286,6.61c-4.565-0.062-7.274-0.87-7.6-2.083c-0.198-0.738,0.653-1.98,2.276-3.322l-1.435-1.734  c-2.458,2.033-3.473,3.93-3.015,5.638c0.706,2.637,4.752,3.745,10.469,3.745c0.197,0,0.402-0.006,0.604-0.008  c4.423,6.726,12.023,11.059,20.459,11.059c1.545,0,3.104-0.148,4.634-0.441c11.314-2.166,19.322-11.837,19.867-22.867  C61.835,30.102,64.221,27.277,63.558,24.805z M21.104,12.585c0.871,1.33,2.407,3.067,4.528,3.172  c1.534,0.082,2.787-0.705,3.796-1.333c0.354-0.22,0.872-0.542,1.122-0.609c0.026,0.035,0.062,0.091,0.104,0.176l0.302,0.601  c0.911,1.803,1.028,2.035,0.615,3.93c-0.347,1.586-1.267,5.8,2.583,7.076c0.396,0.131,0.549,0.277,0.563,0.28  c-0.011,0.241-0.858,1.486-4.575,2.754c-4.193,1.43-7.504,2.56-8.076,4.89c-0.294,1.195,0.189,2.433,1.475,3.783  c0.212,0.223,0.547,0.625,0.404,0.814c-0.816,1.08-5.198,1.49-6.146,1.008c-0.22-0.341,0.009-1.881,0.16-2.899  c0.305-2.062,0.685-4.627-0.204-6.758c-0.681-1.632-1.896-2.833-2.966-3.893c-1.669-1.651-2.599-2.692-2.213-4.443  c0.312-0.555,0.644-1.102,1.005-1.634C15.554,16.596,18.127,14.252,21.104,12.585z M11.005,24.59  c0.586,0.982,1.417,1.811,2.202,2.587c1.011,1,1.965,1.944,2.471,3.16c0.649,1.554,0.334,3.684,0.057,5.562  c-0.33,2.227-0.642,4.33,0.968,5.177c0.563,0.296,1.589,0.458,2.765,0.458c2.307,0,5.188-0.621,6.273-2.057  c0.396-0.524,1.133-1.935-0.569-3.722c-0.685-0.719-1.011-1.321-0.92-1.696c0.278-1.134,3.794-2.333,6.618-3.296  c3.94-1.344,6.106-3.082,6.099-4.893c-0.003-0.515-0.212-1.779-2.106-2.407c-1.189-0.394-1.787-1.278-1.092-4.46  c0.557-2.554,0.249-3.336-0.806-5.424l-0.296-0.589c-0.361-0.726-0.859-1.183-1.48-1.359c-1.05-0.296-2.013,0.304-2.947,0.884  c-0.821,0.51-1.676,1.028-2.498,0.997c-1.039-0.051-1.969-1.005-2.61-1.928c1.487-0.642,3.053-1.132,4.683-1.444  c1.391-0.267,2.808-0.401,4.211-0.401c6.633,0,12.697,2.952,16.812,7.71c-1.216,0.469-2.683,1.287-3.179,2.612  c-0.252,0.669-0.354,1.729,0.586,2.979c2.031,2.702,1.805,3.49,0.848,5.372c-0.588,1.16-0.88,2.582-0.844,4.112l2.25-0.053  c-0.027-1.16,0.18-2.211,0.6-3.04c1.33-2.615,1.493-4.354-1.055-7.742c-0.396-0.525-0.308-0.759-0.279-0.837  c0.221-0.588,1.443-1.181,2.53-1.519c1.726,2.489,2.968,5.357,3.566,8.484c0.261,1.361,0.384,2.717,0.392,4.056  c-5.287,2.878-12.571,5.635-20.544,7.771c-8.474,2.271-15.637,3.327-20.95,3.541c-1.235-2.123-2.138-4.477-2.62-6.998  C9.384,32.247,9.699,28.271,11.005,24.59z M36.184,53.861c-0.318,0.062-0.639,0.114-0.961,0.161c0.064-0.34,0.097-0.701,0.091-1.081  c-0.03-1.846-0.898-3.657-2.266-4.725c-1.045-0.815-2.132-0.993-2.927-1.122c-0.15-0.024-0.335-0.054-0.477-0.085  c0.014-0.08,0.036-0.188,0.076-0.33c0.141-0.501,0.411-1.005,0.781-1.457l-1.742-1.425c-0.563,0.689-0.98,1.475-1.205,2.272  c-0.169,0.601-0.34,1.485,0.129,2.219c0.49,0.769,1.333,0.906,2.076,1.026c0.646,0.105,1.313,0.214,1.903,0.675  c0.832,0.649,1.382,1.823,1.4,2.988c0.009,0.518-0.097,0.965-0.286,1.266c-0.268,0.01-0.536,0.02-0.804,0.02  c-7.175,0-13.681-3.456-17.778-8.913c5.946-0.37,13.116-1.665,20.096-3.535c7.553-2.023,14.517-4.603,19.828-7.331  c-0.168,1.484-0.485,2.935-0.938,4.333c-1.166,0.095-2.194-0.406-3.063-1.501l-1.763,1.398c1.096,1.381,2.462,2.174,3.965,2.335  c-0.871,1.949-2.017,3.764-3.398,5.386c-2.345-2.417-5.156-4.841-6.745-4.536c-0.475,0.091-0.973,0.283-1.55,0.506  c-1.184,0.455-2.656,1.021-3.911,0.585l-0.737,2.126c2.037,0.706,4.014-0.056,5.457-0.612c0.424-0.163,0.825-0.318,1.102-0.382  c0.691,0.136,2.809,1.881,4.837,3.955C44.379,50.951,40.555,53.025,36.184,53.861z"/></g><g id="SvgjsG1008" featureKey="8L6ael-0" transform="matrix(1.6903310259104307,0,0,1.6903310259104307,117.26166272244917,17.548350512536345)" fill="#fff"><path d="M10.56 5.52 q1.22 0.46 2.2 1.48 q2.1 2.12 2.1 5.41 t-2.1 5.43 q-0.98 1.02 -2.2 1.48 q-1.26 0.52 -2.58 0.52 l-5.66 0 q-0.28 0 -0.49 -0.21 t-0.21 -0.49 l0 -1.44 q0 -0.3 0.21 -0.51 t0.49 -0.21 l5.6 0 q1.78 0 2.89 -1.3 t1.11 -3.26 t-1.11 -3.26 t-2.89 -1.3 l-5.6 0 q-0.28 0 -0.49 -0.21 t-0.21 -0.51 l0 -1.44 q0 -0.28 0.21 -0.49 t0.49 -0.21 l5.66 0 q1.32 0 2.58 0.52 z M34.86 18.86 q0.14 0.32 -0.07 0.65 t-0.57 0.33 l-13.32 0 q-0.18 0 -0.34 -0.09 t-0.24 -0.23 q-0.22 -0.32 -0.06 -0.66 l0.62 -1.46 q0.08 -0.2 0.26 -0.32 t0.38 -0.12 l9.32 0 l-3.28 -7.84 l-2.68 6.4 q-0.08 0.2 -0.25 0.31 t-0.39 0.11 l-1.68 0 q-0.38 0 -0.6 -0.32 q-0.08 -0.14 -0.1 -0.32 t0.04 -0.34 l4.06 -9.52 q0.08 -0.2 0.25 -0.32 t0.39 -0.12 l1.92 0 q0.22 0 0.39 0.12 t0.25 0.32 z M60.16 5.300000000000001 q0.2 0.28 0.1 0.62 l-4.22 13.54 q-0.06 0.22 -0.25 0.36 t-0.43 0.14 l-1.74 0 q-0.22 0 -0.41 -0.14 t-0.25 -0.34 l-3 -9.28 l-2.98 9.28 q-0.08 0.22 -0.26 0.35 t-0.42 0.13 l-1.74 0 q-0.36 0 -0.58 -0.28 q-0.2 -0.34 -0.08 -0.64 l4.52 -13.56 q0.06 -0.2 0.25 -0.34 t0.41 -0.14 l1.76 0 q0.24 0 0.42 0.14 t0.26 0.36 l2.96 9.2 l2.8 -9.2 q0.08 -0.22 0.27 -0.36 t0.41 -0.14 l1.62 0 q0.38 0 0.58 0.3 z M42.64 5.5 l1.14 3.74 q0.12 0.34 -0.1 0.63 t-0.58 0.29 l-1.58 0 q-0.24 0 -0.43 -0.14 t-0.25 -0.36 l-1.16 -3.74 q-0.12 -0.34 0.1 -0.63 t0.56 -0.29 l1.62 0 q0.24 0 0.43 0.14 t0.25 0.36 z M78.78 5 q0.28 0 0.49 0.21 t0.21 0.49 l0 13.4 q0 0.28 -0.21 0.49 t-0.49 0.21 l-1.76 0 q-0.36 0 -0.58 -0.28 l-9.78 -13.4 q-0.12 -0.16 -0.14 -0.36 t0.07 -0.38 t0.26 -0.28 t0.37 -0.1 l1.76 0 q0.16 0 0.32 0.07 t0.24 0.21 l7.02 9.54 l0 -9.12 q0 -0.28 0.2 -0.49 t0.5 -0.21 l1.52 0 z M68.74000000000001 14.7 q0.28 0 0.49 0.2 t0.21 0.5 l0 3.7 q0 0.28 -0.21 0.49 t-0.49 0.21 l-1.52 0 q-0.28 0 -0.49 -0.21 t-0.21 -0.49 l0 -3.7 q0 -0.3 0.21 -0.5 t0.49 -0.2 l1.52 0 z M89.36000000000001 10.94 q0.3 0 0.5 0.21 t0.2 0.51 l0 7.48 q0 0.28 -0.2 0.49 t-0.5 0.21 l-1.52 0 q-0.28 0 -0.49 -0.21 t-0.21 -0.49 l0 -7.48 q0 -0.3 0.21 -0.51 t0.49 -0.21 l1.52 0 z M89.36000000000001 5 q0.3 0 0.5 0.21 t0.2 0.49 l0 3.7 q0 0.3 -0.2 0.51 t-0.5 0.21 l-1.52 0 q-0.28 0 -0.49 -0.21 t-0.21 -0.51 l0 -3.7 q0 -0.28 0.21 -0.49 t0.49 -0.21 l1.52 0 z M105.58000000000001 7.9 q-0.24 -0.04 -0.4 -0.24 t-0.16 -0.44 l0 -1.52 q0 -0.3 0.24 -0.54 q0.26 -0.2 0.58 -0.14 q2.36 0.4 4 2.1 q0.84 0.88 1.36 2 q0.08 0.14 0.07 0.32 t-0.11 0.34 t-0.25 0.25 t-0.33 0.09 l-1.7 0 q-0.18 0 -0.34 -0.09 t-0.26 -0.25 q-0.28 -0.42 -0.52 -0.66 q-0.9 -0.92 -2.18 -1.22 z M103.54 5.16 q0.24 0.24 0.24 0.54 l0 1.52 q0 0.24 -0.16 0.44 t-0.4 0.24 q-1.28 0.3 -2.18 1.22 q-1.24 1.34 -1.24 3.35 t1.24 3.35 q0.86 0.92 2.18 1.22 q0.24 0.04 0.4 0.24 t0.16 0.44 l0 1.52 q0 0.32 -0.26 0.54 q-0.2 0.16 -0.44 0.16 l-0.12 0 q-2.4 -0.44 -4 -2.12 q-2.08 -2.14 -2.08 -5.35 t2.08 -5.35 q1.62 -1.7 4 -2.1 q0.32 -0.06 0.58 0.14 z M111.9 12.059999999999999 q0.02 0.14 0.02 0.42 q0 0.44 -0.06 1.02 q-0.3 2.54 -2.02 4.32 q-1.64 1.7 -4 2.12 l-0.12 0 q-0.24 0 -0.46 -0.16 q-0.24 -0.24 -0.24 -0.54 l0 -1.52 q0 -0.24 0.16 -0.44 t0.4 -0.24 q1.32 -0.3 2.18 -1.22 q0.7 -0.74 1 -1.7 l-4.24 0 q-0.3 0 -0.5 -0.2 t-0.2 -0.5 l0 -1.42 q0 -0.28 0.2 -0.49 t0.5 -0.21 l6.68 0 q0.28 0 0.48 0.19 t0.22 0.47 l0 0.1 z M119.24000000000001 10.12 q-0.28 0 -0.49 -0.21 t-0.21 -0.49 l0 -3.72 q0 -0.28 0.21 -0.49 t0.49 -0.21 l1.52 0 q0.3 0 0.5 0.21 t0.2 0.49 l0 3.72 q0 0.28 -0.2 0.49 t-0.5 0.21 l-1.52 0 z M130.10000000000002 5 q0.28 0 0.49 0.21 t0.21 0.49 l0 13.44 q0 0.28 -0.21 0.49 t-0.49 0.21 l-1.52 0 q-0.3 0 -0.5 -0.21 t-0.2 -0.49 l0 -5.28 l-6.42 0 l0 5.28 q0 0.28 -0.2 0.49 t-0.5 0.21 l-1.52 0 q-0.28 0 -0.49 -0.21 t-0.21 -0.49 l0 -7.48 q0 -0.28 0.21 -0.49 t0.49 -0.21 l8.64 0 l0 -5.26 q0 -0.28 0.2 -0.49 t0.5 -0.21 l1.52 0 z M139.88000000000002 5 q0.3 0 0.51 0.21 t0.21 0.51 l0 1.46 q0 0.3 -0.21 0.51 t-0.51 0.21 l-2.06 0 q-0.28 0 -0.49 -0.21 t-0.21 -0.51 l0 -1.46 q0 -0.3 0.21 -0.51 t0.49 -0.21 l2.06 0 z M148.82000000000002 5 q0.28 0 0.49 0.21 t0.21 0.51 l0 1.46 q0 0.3 -0.21 0.51 t-0.49 0.21 l-4.02 0 l0 11.36 q0 0.28 -0.21 0.49 t-0.49 0.21 l-1.54 0 q-0.3 0 -0.51 -0.21 t-0.21 -0.49 l0 -13.54 q0 -0.3 0.21 -0.51 t0.51 -0.21 l6.26 0 z"/></g>
			</g>
		</svg>
	