<svg fill="none" height="104.19861602783203" viewBox="0 0 627.8624572753906 104.19861602783203"
     width="627.8624572753906" xmlns="http://www.w3.org/2000/svg">
    <defs>
        <!-- 定义线性渐变 -->
        <linearGradient id="grad1" x1="0%" x2="100%" y1="0%" y2="100%">
            <stop offset="0%" style="stop-color:rgb(255,255,0);stop-opacity:1" />
            <stop offset="100%" style="stop-color:rgb(255,0,0);stop-opacity:1" />
        </linearGradient>
    </defs>
    <path
            d="M71.976 2.08092C50.826 32.5309 1.47598 103.581 7.97598 83.0809C14.476 62.5809 73.476 -5.41908 112.976 2.08092C152.476 9.58092 38.976 105.081 1.97598 96.0809C13.476 64.0809 91.3385 50.1395 123.476 47.5909C118.826 54.9409 107.976 72.0909 103.976 62.0909C99.976 52.0909 116.476 48.0909 119.976 65.5909C103.976 65.5909 131.476 57.6009 139.976 47.6009C128.976 56.1051 123.976 76.6109 144.976 54.1109C139.976 72.6109 156.976 75.6209 156.976 47.6209C162.476 69.6294 206.976 47.1409 184.976 50.6409C169.476 65.5976 168.976 73.6409 180.976 62.1409C192.976 50.6409 189.976 46.6409 193.476 59.1409C196.976 71.6409 224.476 47.6409 217.476 47.6409C210.476 47.6409 202.476 69.1409 209.976 65.6409C217.476 62.1409 274.476 30.6409 252.476 62.1409C230.476 93.6409 191.476 121.641 196.476 86.1409C199.976 76.6439 214.476 58.6509 263.476 62.1509C252.476 80.1536 287.976 20.1609 299.476 20.1609C294.976 27.1609 252.476 64.1709 257.976 70.1709C267.476 62.1486 283.476 38.1709 283.476 59.1709C294.976 62.1537 298.988 56.7989 299.476 54.1809C292.126 63.9309 274.976 86.6809 274.976 89.6809C274.976 92.6809 321.476 20.1809 325.476 20.1809C329.476 20.1809 323.976 32.6809 320.476 32.6809C316.976 32.6809 258.976 38.6809 274.976 35.6809C290.976 32.6809 374.476 24.6809 365.976 32.6809C355.476 35.6809 370.476 6.67092 381.476 1.67092C392.476 -3.32908 308.476 102.171 314.476 82.1709C320.476 62.1709 393.976 -11.8291 425.476 4.17092C456.976 20.1709 324.476 106.671 311.976 98.1709C299.476 89.6709 420.976 42.1709 425.476 48.1709C429.976 54.1709 419.113 62.3209 413.976 65.1709C416.076 62.1709 420.976 55.1709 443.476 48.1709C443.476 59.6709 443.476 65.1784 454.976 55.1809C456.026 52.3294 458.476 45.6809 452.476 48.1809C446.476 50.6809 433.476 72.1809 448.476 65.1809C463.476 58.1809 476.976 59.6809 476.976 55.1809C476.976 50.6809 464.976 45.1809 464.976 65.1809C482.976 73.1809 500.976 47.6809 504.476 44.6809C507.976 41.6809 482.476 73.6809 489.476 71.1809C496.476 68.6809 508.976 20.1809 504.476 59.6809C504.476 65.1809 519.976 41.1909 522.976 48.1909C525.976 55.1909 511.476 67.1909 533.476 59.6909C546.976 55.1809 540.476 48.1936 543.976 48.1936C547.476 48.1936 527.476 70.6936 538.476 65.1936C549.476 59.6936 556.476 48.1936 556.476 48.1936C554.226 52.9936 548.976 64.1936 558.976 59.6936C568.976 55.1936 567.476 68.1936 571.476 65.1936C575.476 62.1936 576.476 48.1936 581.476 48.1936C586.476 48.1936 591.476 51.6936 591.476 48.1936C591.476 44.6936 599.976 48.1936 599.976 48.1936C598.326 55.0936 594.476 71.1936 599.976 59.6936C605.476 48.1936 612.476 44.1936 612.476 48.1936C612.476 52.1936 627.476 48.1936 627.476 48.1936"
            stroke="url(#grad1)"
            stroke-width="3"
            stroke-dasharray="2750"
            stroke-linejoin="round"
            stroke-dashoffset="2750"
    >
        <animate attributeName="stroke-dashoffset" to="0" dur="3s" fill="freeze"/>
    </path>
</svg>
